<?xml version="1.0" encoding="utf-8"?>
<!-- Generator: Adobe Illustrator 18.0.0, SVG Export Plug-In . SVG Version: 6.00 Build 0)  -->
<!DOCTYPE svg PUBLIC "-//W3C//DTD SVG 1.1//EN" "http://www.w3.org/Graphics/SVG/1.1/DTD/svg11.dtd">
<svg version="1.1" id="Layer_1" xmlns="http://www.w3.org/2000/svg" xmlns:xlink="http://www.w3.org/1999/xlink" x="0px" y="0px"
	 viewBox="0 0 1400 980" style="enable-background:new 0 0 1400 980;" xml:space="preserve">
<style type="text/css">
	.st0{fill:#59658B;}
	.st1{fill:#595681;}
	.st2{fill:#3D3D56;}
	.st3{fill:#D2E6FF;}
	.st4{fill:#FFFFFF;}
	.st5{fill:#81BDE0;}
	.st6{fill:#9AD6E0;}
	.st7{fill:#EBFAFF;}
	.st8{fill:#548B68;}
	.st9{fill:#63B868;}
	.st10{fill:#6DA9CC;}
	.st11{fill:#59749A;}
</style>
<rect class="st0" width="1400" height="980"/>
<polygon class="st1" points="1131.8,560.8 1365,560.8 1277.5,855.8 1234.4,848 "/>
<path class="st2" d="M595.6,217c0,0-47.6-43-24.6-110c0,0-0.9-42,43.5-50v25c0,0,3.5-19,25.5-25s153-12,178,22s7,55.7,7,55.7
	c59.1,0.1,106,82.2-32.7,204.7L595.6,217z"/>
<path class="st3" d="M1117,792c-5-2-11-2-16,0c-10,3-21,1-30,4c-13.8,5.6-27.5,9.7-41.8,12.2L1089,980h128
	c12.2-46.7,17.4-90.8,17.4-132c-30.6-22.2-65.6-37.4-103.4-48C1126,799,1122,793,1117,792z"/>
<path class="st3" d="M1075,649c-2-2-5-2-6-4c-9.7-26.1-31-46-55.7-57.4c-8.1,51.5-11.8,100.6-9.9,146.5l25.8,74.1
	c14.3-2.5,28-6.6,41.8-12.2c9-3,20-1,30-4c5-2,11-2,16,0c5,1,9,7,14,8c1.5,0.4,3,0.9,4.5,1.3c-7.1-23.5-13.3-47.5-24.5-69.3
	C1097,704,1092,676,1075,649z"/>
<path class="st4" d="M1042.1,452.1c-12.1,46.5-22,91.9-28.8,135.5c24.7,11.4,46,31.3,55.7,57.4c1,2,4,2,6,4c17,27,22,55,36,83
	c11.2,21.8,17.4,45.8,24.5,69.3c36.1,10.6,69.6,25.4,98.9,46.7C1234.2,598.6,1042.1,452.1,1042.1,452.1z"/>
<path class="st5" d="M786.1,325.1l-181.5,53.2l-25.5,86c67.1,3.3,134.8-4.6,196.8-34c9.3-21.9,18.5-43.8,27-66.1L786.1,325.1z"/>
<path class="st6" d="M802.9,364.1c-8.5,22.3-17.7,44.2-27,66.1c15.2-7.2,30.1-15.7,44.5-25.6L802.9,364.1z"/>
<path class="st3" d="M993,697c-1-3-5-4-6-7c-7-20-13-40-21-59c-30.4-66.9-54-134.5-74.1-203.5l-66.3-10.9l-5.2-12
	c-73.3,50.5-157.8,63.8-241.3,59.6L457.4,875l22.9,66.2c36.2,3.6,72.5,3.9,108.7,7.8c75,8,150,4,225,3c3,0,5-2,8-3c6,0,12,1,18,0
	c39-8,76-11,114-13c5-1,11-4,16-5c8.7-0.6,17.3-1,25.9-1.4c-0.6-67.8,2.6-134.1,7.5-194.7c-0.8-2.6-1.6-5.3-2.4-7.9
	C998,717,997,707,993,697z"/>
<path class="st4" d="M891.9,427.5c20.1,69,43.7,136.7,74.1,203.5c8,19,14,39,21,59c1,3,5,4,6,7c4,10,5,20,8,30
	c0.7,2.7,1.5,5.3,2.4,7.9c13.1-161.7,38.7-282.8,38.7-282.8L891.9,427.5z"/>
<path class="st4" d="M970,931c-5,1-11,4-16,5c-38,2-75,5-114,13c-6,1-12,0-18,0c-3,1-5,3-8,3c-75,1-150,5-225-3
	c-36.2-3.9-72.5-4.2-108.7-7.8l13.4,38.8H997c-0.6-16.8-1-33.6-1.1-50.4C987.3,930,978.7,930.4,970,931z"/>
<path class="st6" d="M604.6,141c0,0-10.6,46.5-9.1,97.5l13.5,12.6l-4.5,33.9v121.5h152L810,306v-32.2c0,0,52.1-25.5,40.3-58.5
	s-46.3-3-46.3-3V225c0,0-37.5-21-33-49.5c0,0-67.5,18-86.3-34.5v40.5C684.7,181.5,616.7,175.5,604.6,141z"/>
<polygon class="st7" points="1042.1,914.9 644.5,914.9 449.2,378.3 846.8,378.3 "/>
<polygon class="st3" points="644.6,914.9 266.1,914.9 70.8,378.3 449.3,378.3 "/>
<path class="st3" d="M793.7,491.8H585c-4.6-12.5-18.4-22.7-30.9-22.7l-14.5-39.9c12.5,0,19-10.2,14.4-22.7h208.7
	c4.6,12.5,18.4,22.7,30.9,22.7l14.5,39.9C795.6,469.1,789.2,479.2,793.7,491.8z"/>
<path class="st5" d="M621,551c8,0,15,16,16,28c1,9-4,17-1,26c1,4,5,8,10,6c26-14,39-42,64-59c18-11,37-8,50,7c8,9,1,23,4,35
	c19-8,37-16,51-32c12.6-15.8,24.2-37.4,38.7-51.9H525.5l32.8,90.2C571.3,574.8,596.1,550.2,621,551z"/>
<path class="st3" d="M853.7,510.1c-14.5,14.4-26,36.1-38.7,51.9c-14,16-32,24-51,32c-3-12,4-26-4-35c-13-15-32-18-50-7
	c-25,17-38,45-64,59c-5,2-9-2-10-6c-3-9,2-17,1-26c-1-12-8-28-16-28c-24.9-0.8-49.7,23.8-62.6,49.3l22.5,61.9h341l-55.4-152.1H853.7
	z"/>
<polygon class="st5" points="1006.2,893.8 665.2,893.8 645.1,838.6 986.1,838.6 "/>
<polygon class="st5" points="732.8,817.7 637.5,817.7 593.7,697.4 689,697.4 "/>
<polygon class="st3" points="855.6,817.7 760.3,817.7 716.5,697.4 811.8,697.4 "/>
<polygon class="st5" points="978.5,817.7 883.2,817.7 839.4,697.4 934.7,697.4 "/>
<g>
	<path class="st2" d="M611.2,418.7h14.9l13,35.7c1.4,3.9,2.2,6.9,2.5,8.9c0.3,2.1,0.1,3.9-0.5,5.5c-0.8,2.1-2.1,3.6-3.9,4.7
		c-1.8,1.1-4.1,1.6-6.9,1.6c-3.5,0-6.8-0.7-10-2.2c-3.2-1.5-6.4-3.7-9.3-6.6l6.1-8.3c0.8,1.6,1.8,2.9,2.9,3.8
		c1.1,0.9,2.3,1.3,3.6,1.3c1.4,0,2.1-0.8,2.1-2.4c0-1.6-1.2-5.5-3.5-11.8L611.2,418.7z"/>
	<path class="st2" d="M703.7,446.3c1.4,4,2.1,7.7,1.9,11.1c-0.2,3.5-1.2,6.5-3,9.3c-1.8,2.7-4.3,4.8-7.3,6.3
		c-3.1,1.5-6.5,2.2-10.4,2.2c-3.9,0-8-0.7-12.1-2.2c-4.1-1.5-8-3.5-11.8-6.3c-3.8-2.7-7.1-5.8-9.8-9.3c-2.7-3.5-4.8-7.2-6.2-11.1
		c-1.4-3.9-2-7.6-1.8-11.1c0.2-3.5,1.2-6.6,3.1-9.3c1.7-2.7,4.1-4.8,7.2-6.3c3.1-1.5,6.6-2.2,10.5-2.2c3.9,0,7.9,0.7,12.1,2.2
		c4.2,1.5,8.1,3.5,11.8,6.3c3.7,2.7,7,5.8,9.7,9.3C700.2,438.6,702.3,442.3,703.7,446.3z M680.2,462.4c4.2,0,7-1.5,8.6-4.6
		c1.6-3.1,1.6-6.9-0.1-11.6c-1.7-4.6-4.5-8.4-8.3-11.5c-3.9-3.1-7.9-4.6-11.9-4.6c-4.2,0-7,1.5-8.6,4.6c-1.6,3.1-1.6,6.9,0.1,11.5
		c1.7,4.7,4.5,8.6,8.2,11.6C672,460.9,676,462.4,680.2,462.4z"/>
	<path class="st2" d="M723.1,473.6l-20-55h15.1c6.2,0,10.6,0.2,13.2,0.6c2.6,0.4,5,1.1,7.1,2.1c2.4,1.1,4.5,2.6,6.3,4.5
		c1.8,1.9,3.1,4.1,4,6.6c1.1,3.1,1.2,5.6,0.3,7.5c-0.9,1.8-2.9,3.2-6.1,4.2c4,0.3,7.6,1.7,10.7,4.1c3.1,2.4,5.4,5.7,6.9,9.8
		c1.1,2.9,1.4,5.5,1,7.7c-0.4,2.2-1.6,4-3.4,5.2c-1.5,1-3.6,1.7-6.2,2.1c-2.6,0.4-7,0.6-13.3,0.6H723.1z M724.9,440.6h3
		c3.7,0,6.1-0.4,7.2-1.2c1.1-0.8,1.3-2.2,0.5-4.2c-0.8-2.1-1.9-3.5-3.5-4.4s-4.3-1.3-8-1.3h-3.2L724.9,440.6z M732.9,462.4h5.3
		c3.6,0,5.9-0.4,7.1-1.3s1.4-2.4,0.6-4.4c-0.8-2.3-2.1-3.9-3.8-4.8c-1.7-0.9-4.4-1.4-8-1.4h-5.5L732.9,462.4z"/>
</g>
<polygon class="st7" points="338.3,605.4 170.7,605.4 98.3,406.5 265.9,406.5 "/>
<polygon class="st7" points="371.4,893.8 275.6,893.8 203.2,694.9 299,694.9 "/>
<polygon class="st7" points="615.5,893.8 559.9,893.8 487.5,694.9 543.1,694.9 "/>
<polygon class="st5" points="507.6,795.2 351.7,795.2 315.2,694.9 471.1,694.9 "/>
<polygon class="st5" points="457.4,895.4 388.2,895.4 356.6,808.5 425.7,808.5 "/>
<polygon class="st7" points="544.1,895.4 475,895.4 443.3,808.5 512.5,808.5 "/>
<polygon class="st5" points="471.3,497.7 311.5,497.7 278.3,406.5 438.1,406.5 "/>
<path class="st5" d="M317.5,514.2l15,41.3c10.2-13.9,20.6-27.7,31.3-41.3H317.5z"/>
<path class="st5" d="M477.3,514.2H426c22.3,11.8,43.7,25,65.1,37.9L477.3,514.2z"/>
<path class="st7" d="M426,514.2h-62.2c-10.7,13.7-21.1,27.5-31.3,41.3l18.2,49.9h159.8l-19.4-53.3
	C469.7,539.2,448.3,526.1,426,514.2z"/>
<polygon class="st7" points="698.5,757.5 626.6,757.5 609.6,710.7 681.5,710.7 "/>
<polygon class="st7" points="822,757.5 750.1,757.5 733.1,710.7 805,710.7 "/>
<polygon class="st7" points="944.9,757.5 873,757.5 856,710.7 927.8,710.7 "/>
<polygon class="st5" points="534.4,671.1 194.5,671.1 176.3,620.9 516.2,620.9 "/>
<path class="st5" d="M983.2,697h2.7l1.4,28.2c7.5-1.9,14.8-4.3,21.9-7.3c3.3-9.8,5.3-19.9,5.9-29.9
	C1005.9,695.5,992.6,691.2,983.2,697z"/>
<path class="st6" d="M1051.6,688.6l-42.1-74.6c-10.3-18.2-29.6-29.5-50.5-29.5h-41.2l-132.5,2.2l4.2,11.3
	c5.9,15.8,21,26.3,37.9,26.3h39.8l33.4,72.7h57.8h24.8c9.4-5.8,22.7-1.5,31.8-9c-0.6,10-2.6,20.1-5.9,29.9
	C1025.3,711.1,1040,701.5,1051.6,688.6z"/>
<path class="st5" d="M153.9,765.4c18.4-5.5,35-15.1,47.7-30.7l-7.4-20.7c-16.8-9.1-34.3-18-53.2-22.1
	C135.4,717.4,141.5,742.9,153.9,765.4z"/>
<path class="st6" d="M322.3,629.9l-87.9,1.2l-9.2-17.1h57.1c15.5,0,25.2-16.9,17.4-30.3l-3-5.2l-153.3-0.8c0,0-53.6,38-33.5,147.4
	c2.9,15.9,8.3,31.2,15.4,45.8c9.8-1,19.4-2.7,28.6-5.5c-12.4-22.5-18.5-48-12.9-73.4c18.9,4.1,36.5,12.9,53.2,22.1l-0.1-0.3h13.7
	c27.7,0,46-28.8,34.2-53.9l0,0h62.7C320.1,659.9,329.8,643.3,322.3,629.9z"/>
<path class="st2" d="M215,810c2.7-4.2,5.2-10,8-15.7l-21.3-59.6c-19.1,23.3-46.9,33.3-76.3,36.2c13,26.7,31.6,50.7,51.1,71.2
	C191.9,835.9,205.6,825.1,215,810z"/>
<path class="st4" d="M266.1,914.9L223,794.3c-2.8,5.7-5.3,11.5-8,15.7c-9.4,15.1-23.1,25.9-38.6,32.1
	C219.2,887.2,266.1,914.9,266.1,914.9z"/>
<path class="st4" d="M1096,952c11.9,10.5,24.5,19.8,37.5,28h57.5l-113.7-245.8c0,0-58.3-19.2-87.2,48.8c-2.9,6.7-5.1,14-6.8,21.8
	C1015,859,1048.2,909.6,1096,952z"/>
<path class="st3" d="M1096,952c-47.8-42.4-81-93-112.7-147.3C967.8,875.2,997,980,997,980h136.5C1120.5,971.8,1107.9,962.5,1096,952
	z"/>
<rect x="574.3" y="249.8" class="st7" width="69.4" height="36.2"/>
<rect x="673.8" y="249.8" class="st7" width="69.4" height="36.2"/>
<path class="st8" d="M643.8,249.8v5.7v10.2v8.1h2.7c2.2,0,4-1.8,4-4l0,0c0-2.2,1.8-4,4-4h8.5c2.2,0,4,1.8,4,4l0,0c0,2.2,1.8,4,4,4
	h2.7v-8.1v-10.2v-5.7H643.8z"/>
<polygon class="st8" points="743.3,249.8 743.3,273.8 749.7,273.8 757.7,261.8 757.7,247.3 "/>
<path class="st9" d="M804,212.3l-46.3,49.5v-16.1c0,0,37.1-46.2,52.7-38.1L804,212.3z"/>
<path class="st2" d="M831.7,132.3c0,0,11.3-38.7,40.7-25.7C872.3,106.7,860.3,125.7,831.7,132.3z"/>
<circle class="st2" cx="701.7" cy="251.1" r="10.7"/>
<circle class="st2" cx="629" cy="251.1" r="10.7"/>
<path class="st2" d="M685,214.7h30.3C715.3,214.7,705.3,190,685,214.7z"/>
<path class="st2" d="M607.2,214.7h30.3C637.5,214.7,627.5,190,607.2,214.7z"/>
<polygon class="st5" points="653,273.8 636,327 656,327 666.7,273.8 "/>
<path class="st10" d="M636,327c0,0,3.7,21,30.7,15.3L656,327H636z"/>
<path class="st2" d="M1077.3,734.2l-25.7-45.6c-16.7,18.6-39.9,30.3-64.3,36.6L990,783C1091.1,792.6,1077.3,734.2,1077.3,734.2z"/>
<path class="st11" d="M815,245c0,0,15.7-5.7,8.7-17s0.7-18.7,9.3-17s24.3,38.8-19.3,50.8L815,245z"/>
<circle class="st4" cx="1099.7" cy="236.3" r="177.8"/>
<path class="st4" d="M942,286c0,0-23.5,47-69.7,45c0,0,50.7,60.2,121.7,33.1L942,286z"/>
<polygon class="st2" points="1365,560.8 1388.6,598.1 1300.1,904.1 1231.2,904.1 1234.4,848 1277.5,855.8 "/>
<g>
	<rect x="761" y="770.3" class="st2" width="64.6" height="4"/>
</g>
<g>
	<rect x="765" y="783.7" class="st2" width="64.6" height="4"/>
</g>
<g>
	<rect x="769" y="797" class="st2" width="64.6" height="4"/>
</g>
<g>
	<rect x="885.6" y="770.3" class="st2" width="64.6" height="4"/>
</g>
<g>
	<rect x="889.6" y="783.7" class="st2" width="64.6" height="4"/>
</g>
<g>
	<rect x="893.6" y="797" class="st2" width="64.6" height="4"/>
</g>
<g>
	<rect x="643.9" y="770.3" class="st2" width="64.6" height="4"/>
</g>
<g>
	<rect x="647.9" y="783.7" class="st2" width="64.6" height="4"/>
</g>
<g>
	<rect x="651.9" y="797" class="st2" width="64.6" height="4"/>
</g>
<g>
	<rect x="370.8" y="701" class="st2" width="89.4" height="4"/>
</g>
<g>
	<rect x="376.4" y="714.3" class="st2" width="89.4" height="4"/>
</g>
<g>
	<rect x="381.9" y="727.7" class="st2" width="89.4" height="4"/>
</g>
<g>
	<rect x="264.8" y="793.2" class="st2" width="57.4" height="4"/>
</g>
<g>
	<rect x="268.3" y="806.5" class="st2" width="57.4" height="4"/>
</g>
<g>
	<rect x="271.9" y="819.9" class="st2" width="57.4" height="4"/>
</g>
<g>
	<rect x="278.3" y="836.7" class="st2" width="57.4" height="4"/>
</g>
<g>
	<rect x="281.9" y="850" class="st2" width="57.4" height="4"/>
</g>
<g>
	<rect x="285.4" y="863.3" class="st2" width="57.4" height="4"/>
</g>
<g>
	<rect x="347.3" y="742.2" class="st2" width="128" height="4"/>
</g>
<g>
	<rect x="355.2" y="755.5" class="st2" width="128" height="4"/>
</g>
<g>
	<rect x="363.2" y="768.9" class="st2" width="128" height="4"/>
</g>
<polygon class="st5" points="215.1,501.7 149.1,501.7 120.4,422.7 186.4,422.7 "/>
<g>
	<path class="st2" d="M1054.1,144.3l15.7,40.9c0.7,1.8,1.4,3.8,2.1,5.8c0.7,2,1.4,4.3,2.2,6.9c0.3-3.2,0.5-5.9,0.7-7.9
		c0.2-2.1,0.4-3.9,0.7-5.4l5.8-43.3l24.4-2.7l-15.4,91.3l-22.4,2.4l-15.1-36.6c-0.5-1.3-1.5-3.8-2.8-7.6c-0.6-1.7-1.1-3-1.4-3.9
		c-0.1,0.9-0.3,2.1-0.5,3.7c-0.5,4-0.9,6.9-1.2,8.5l-6.7,39l-22.5,2.4L983.2,152l24.4-2.6l14.8,41.3c0.7,2.1,1.4,4.3,2.1,6.4
		s1.4,4.3,2,6.6c0.2-1.7,0.4-3.6,0.6-5.5c0.2-1.9,0.6-4.6,1-8.1l6.5-43.6L1054.1,144.3z"/>
	<path class="st2" d="M1209.8,172.3c0.7,6.4,0.2,12.5-1.6,18.3c-1.7,5.8-4.6,11.2-8.6,16.1c-4,4.8-8.8,8.8-14.4,11.8
		c-5.6,3-11.5,4.8-17.7,5.5c-6.3,0.7-12.5,0.2-18.6-1.6c-6-1.7-11.5-4.5-16.4-8.4c-5-3.9-9-8.5-12-13.9c-3-5.4-4.8-11.2-5.5-17.5
		c-0.7-6.3-0.2-12.4,1.6-18.3s4.7-11.2,8.8-16.1c3.9-4.8,8.7-8.7,14.2-11.7c5.5-3,11.5-4.8,17.8-5.5c6.3-0.7,12.5-0.2,18.6,1.6
		c6.1,1.7,11.6,4.5,16.5,8.4c4.9,3.9,8.9,8.5,11.8,13.8C1207.3,160.2,1209.2,166,1209.8,172.3z M1165.4,203.5
		c6.7-0.7,12-3.8,15.8-9.2c3.8-5.4,5.4-11.8,4.5-19.4c-0.8-7.4-3.7-13.4-8.7-17.9c-5-4.5-10.8-6.4-17.3-5.6
		c-6.7,0.7-12,3.8-15.8,9.2c-3.8,5.4-5.4,11.9-4.5,19.3c0.8,7.6,3.7,13.6,8.5,18C1152.7,202.4,1158.5,204.2,1165.4,203.5z"/>
	<path class="st2" d="M1014.3,339.5l-9.6-88.6l25.2-2.7c9.9-1.1,16.8-1.4,20.8-0.9c4,0.5,7.5,1.6,10.6,3.5c3.4,2.1,6.2,4.9,8.4,8.5
		c2.1,3.6,3.4,7.6,3.9,12.1c0.7,6.9-0.3,12.6-3.2,17.3s-7.5,8.1-13.8,10.2l28,33.1l-27.3,3l-24.1-32.5l3.8,34.7L1014.3,339.5z
		 M1031.9,290.3l4.5-0.5c5.2-0.6,8.9-1.9,11.1-3.9c2.2-2,3.1-5,2.7-8.7c-0.5-4.4-1.9-7.5-4.4-9.1c-2.4-1.6-6.3-2.2-11.6-1.6
		l-4.8,0.5L1031.9,290.3z"/>
	<path class="st2" d="M1093.8,330.8l-9.6-88.6l23.9-2.6l4.4,40.2l23.6-43.3l28.1-3.1l-28,46.8l40.5,41.5l-30.1,3.3l-33.2-36.6
		l4.3,39.8L1093.8,330.8z"/>
	<path class="st2" d="M1181,291.5l-6.9-63.2l22.5-2.4l6.9,63.2L1181,291.5z M1182.2,311.2c-0.4-3.4,0.5-6.5,2.5-9.1
		c2.1-2.6,4.8-4.1,8.2-4.5c3.5-0.4,6.5,0.5,9.1,2.6s4.1,4.9,4.5,8.4c0.4,3.4-0.5,6.5-2.6,9.1c-2.1,2.6-4.9,4.1-8.3,4.5
		c-3.4,0.4-6.4-0.5-9-2.6C1184.1,317.4,1182.6,314.6,1182.2,311.2z"/>
</g>
</svg>
